<svg id="Layer_1" data-name="Layer 1" xmlns="http://www.w3.org/2000/svg" xmlns:xlink="http://www.w3.org/1999/xlink" viewBox="0 0 145.75 41.44"><defs><style>.cls-1{fill:url(#linear-gradient);}.cls-2{fill:#fff;}.cls-3{fill:url(#linear-gradient-2);}.cls-4{fill:#474443;}.cls-5{fill:#2e91cf;}</style><linearGradient id="linear-gradient" x1="2.25" y1="25.76" x2="36.59" y2="25.76" gradientUnits="userSpaceOnUse"><stop offset="0" stop-color="#2f9bd6"/><stop offset="1" stop-color="#3678bc"/></linearGradient><linearGradient id="linear-gradient-2" x1="27.5" y1="12.25" x2="39" y2="12.25" gradientUnits="userSpaceOnUse"><stop offset="0" stop-color="#3480c2"/><stop offset="1" stop-color="#3481c3"/></linearGradient></defs><title>logo-150</title><path class="cls-1" d="M18.49,46.48c-.29-.48-.57-1-.88-1.44-.85-1.3-1.71-2.59-2.55-3.89-.54-.83-1.08-1.66-1.59-2.5a1.84,1.84,0,0,0-1-.78A14.69,14.69,0,0,1,8.42,35.4,16.85,16.85,0,0,1,5,31.5a17.14,17.14,0,0,1-2.57-7,16.66,16.66,0,0,1,.09-5.13,17.42,17.42,0,0,1,1.93-5.5A17,17,0,0,1,7.69,9.7a17.52,17.52,0,0,1,4.38-3,16.62,16.62,0,0,1,5.52-1.56,16.17,16.17,0,0,1,4.91.17,20.24,20.24,0,0,1,3.63,1.1,16.21,16.21,0,0,1,4.61,2.87,17.46,17.46,0,0,1,3.33,3.94,17.16,17.16,0,0,1,2.45,7.42A17.5,17.5,0,0,1,36,26.76a16.87,16.87,0,0,1-2.37,5.13,16.69,16.69,0,0,1-3.55,3.81,18.87,18.87,0,0,1-4.61,2.6c-.18.08-.4.05-.57.14a2.2,2.2,0,0,0-.68.52q-1.87,2.38-3.7,4.8c-.67.89-1.29,1.81-1.94,2.72Z" transform="translate(-2.25 -5.04)"/><circle class="cls-2" cx="11.67" cy="15.68" r="2.4" transform="translate(-7.39 0.65) rotate(-22.61)"/><path class="cls-2" d="M11.67,18.9h0a4.46,4.46,0,0,0-4.46,4.46h0a1.17,1.17,0,0,0,1.17,1.17H15a1.17,1.17,0,0,0,1.17-1.17h0A4.46,4.46,0,0,0,11.67,18.9Z" transform="translate(-2.25 -5.04)"/><circle class="cls-2" cx="22.33" cy="12.57" r="2.4" transform="translate(-5.37 4.51) rotate(-22.61)"/><path class="cls-2" d="M22.33,15.8h0a4.46,4.46,0,0,0-4.46,4.45h0A1.17,1.17,0,0,0,19,21.42h6.58a1.17,1.17,0,0,0,1.17-1.17h0A4.46,4.46,0,0,0,22.33,15.8Z" transform="translate(-2.25 -5.04)"/><circle class="cls-2" cx="18.81" cy="25.85" r="2.12" transform="translate(-10.61 3.95) rotate(-22.14)"/><path class="cls-2" d="M18.79,28.7h0a3.94,3.94,0,0,0-4,3.9h0a1,1,0,0,0,1,1l5.81,0a1,1,0,0,0,1.05-1h0A3.94,3.94,0,0,0,18.79,28.7Z" transform="translate(-2.25 -5.04)"/><circle class="cls-2" cx="24.7" cy="19.08" r="1.54"/><path class="cls-2" d="M27,26.19h0a2.87,2.87,0,0,0-2.86,2.87h0a.75.75,0,0,0,.75.75h4.23a.76.76,0,0,0,.75-.75h0A2.87,2.87,0,0,0,27,26.19Z" transform="translate(-2.25 -5.04)"/><circle class="cls-2" cx="31" cy="7.21" r="5.56"/><path class="cls-3" d="M33.25,18A5.75,5.75,0,1,1,39,12.25,5.76,5.76,0,0,1,33.25,18Zm0-11.12a5.38,5.38,0,1,0,5.38,5.37A5.39,5.39,0,0,0,33.25,6.88Z" transform="translate(-2.25 -5.04)"/><path class="cls-4" d="M29.19,11.46a.28.28,0,0,1,.29-.16h2.87V8.42c0-.2.07-.27.28-.27H34.1c.18,0,.27.08.27.26V11.3h2.88c.19,0,.27.08.27.27v1.48c0,.18-.08.27-.26.27H34.37v.09c0,.93,0,1.85,0,2.78a.27.27,0,0,1-.17.28H32.51a.28.28,0,0,1-.17-.28c0-.93,0-1.85,0-2.77v-.1H29.48a.28.28,0,0,1-.29-.17Z" transform="translate(-2.25 -5.04)"/><path class="cls-5" d="M45.63,33q-5.54,0-5.54-6.54a7.29,7.29,0,0,1,1.51-5,5.44,5.44,0,0,1,4.32-1.71,7.73,7.73,0,0,1,3.69.86l-1,2.69c-.51-.22-1-.4-1.42-.54a4.33,4.33,0,0,0-1.32-.21q-2.54,0-2.53,3.86t2.53,3.74a5.36,5.36,0,0,0,1.73-.27,6.12,6.12,0,0,0,1.59-.84v3a4.81,4.81,0,0,1-1.58.74A8.21,8.21,0,0,1,45.63,33Z" transform="translate(-2.25 -5.04)"/><path class="cls-5" d="M59.75,32.77l-.44-1.63h-.17a3.42,3.42,0,0,1-1.47,1.37,4.67,4.67,0,0,1-2.18.49,4,4,0,0,1-3.15-1.2,5.09,5.09,0,0,1-1.06-3.47V20h3.24v7.46A3.83,3.83,0,0,0,55,29.54a1.63,1.63,0,0,0,1.46.69,2.13,2.13,0,0,0,2-1A6.45,6.45,0,0,0,59,26V20h3.23V32.77Z" transform="translate(-2.25 -5.04)"/><path class="cls-5" d="M71.61,19.78a4.82,4.82,0,0,1,1.09.1l-.24,3.26a3.84,3.84,0,0,0-1-.11,3.31,3.31,0,0,0-2.42.85,3.25,3.25,0,0,0-.86,2.4v6.49H65V20h2.45l.48,2.15h.16a4.74,4.74,0,0,1,1.49-1.73A3.49,3.49,0,0,1,71.61,19.78Z" transform="translate(-2.25 -5.04)"/><path class="cls-5" d="M74.06,16.72c0-1.14.59-1.7,1.77-1.7s1.76.56,1.76,1.7A1.74,1.74,0,0,1,77.15,18a1.79,1.79,0,0,1-1.32.45A1.54,1.54,0,0,1,74.06,16.72Zm3.38,16.05H74.2V20h3.24Z" transform="translate(-2.25 -5.04)"/><path class="cls-5" d="M91,26.37a7.16,7.16,0,0,1-1.53,4.87A5.33,5.33,0,0,1,85.19,33a5.7,5.7,0,0,1-3-.8,5.26,5.26,0,0,1-2-2.32,8.33,8.33,0,0,1-.7-3.51A7.16,7.16,0,0,1,81,21.51a5.36,5.36,0,0,1,4.27-1.73,5.69,5.69,0,0,1,3,.79,5.18,5.18,0,0,1,2,2.3A8.1,8.1,0,0,1,91,26.37Zm-8.2,0a5.61,5.61,0,0,0,.58,2.86,2.29,2.29,0,0,0,3.74,0,5.74,5.74,0,0,0,.57-2.87,5.62,5.62,0,0,0-.57-2.84,2.33,2.33,0,0,0-3.75,0A5.63,5.63,0,0,0,82.77,26.37Z" transform="translate(-2.25 -5.04)"/><path class="cls-5" d="M101.41,32.77,101,31.14h-.17a3.5,3.5,0,0,1-1.48,1.37,4.63,4.63,0,0,1-2.17.49A4,4,0,0,1,94,31.8a5.14,5.14,0,0,1-1.06-3.47V20h3.24v7.46a3.73,3.73,0,0,0,.46,2.07,1.61,1.61,0,0,0,1.45.69,2.15,2.15,0,0,0,2-1,6.47,6.47,0,0,0,.6-3.23V20h3.24V32.77Z" transform="translate(-2.25 -5.04)"/><path class="cls-5" d="M114.92,29a3.63,3.63,0,0,1-1.27,3,5.92,5.92,0,0,1-3.8,1,10.82,10.82,0,0,1-2.21-.19,8.13,8.13,0,0,1-1.71-.55V29.38a10.83,10.83,0,0,0,2,.77,7.94,7.94,0,0,0,2,.31c1.17,0,1.76-.37,1.76-1.1a1,1,0,0,0-.23-.67,3.71,3.71,0,0,0-.81-.58c-.38-.22-.89-.47-1.53-.76a9.47,9.47,0,0,1-2-1.14,3.11,3.11,0,0,1-.93-1.2,4.17,4.17,0,0,1-.3-1.68,3.12,3.12,0,0,1,1.23-2.63,5.67,5.67,0,0,1,3.48-.92,9.27,9.27,0,0,1,4.17,1l-1,2.51a17,17,0,0,0-1.66-.67,4.83,4.83,0,0,0-1.59-.27c-1,0-1.43.28-1.43.84a1,1,0,0,0,.46.81,12.13,12.13,0,0,0,2,1,9.5,9.5,0,0,1,2,1.13,3.24,3.24,0,0,1,1,1.21A4,4,0,0,1,114.92,29Z" transform="translate(-2.25 -5.04)"/><path class="cls-4" d="M123.35,22.63h-2.8V32.77h-3.24V22.63h-1.78V21l1.78-.94v-.93a4.35,4.35,0,0,1,1-3.18,4.37,4.37,0,0,1,3.2-1,7.76,7.76,0,0,1,3,.54L123.66,18a5.65,5.65,0,0,0-1.8-.33,1.14,1.14,0,0,0-1,.44,1.89,1.89,0,0,0-.31,1.13V20h2.8Z" transform="translate(-2.25 -5.04)"/><path class="cls-4" d="M132.1,32.77,131.47,31h-.08a5,5,0,0,1-1.68,1.53,5.06,5.06,0,0,1-2.26.43A3.5,3.5,0,0,1,124.76,32a4.19,4.19,0,0,1-1-3,3.45,3.45,0,0,1,1.32-3,7.19,7.19,0,0,1,4-1.07l2.06-.07v-.56c0-1.29-.61-1.94-1.84-1.94a8,8,0,0,0-3.35.92l-1.07-2.35a9.2,9.2,0,0,1,4.54-1.15,5.42,5.42,0,0,1,3.67,1.12,4.29,4.29,0,0,1,1.27,3.4v8.5Zm-1-5.91-1.25.05a3.83,3.83,0,0,0-2.1.54A1.78,1.78,0,0,0,127.1,29c0,1,.52,1.48,1.57,1.48a2.41,2.41,0,0,0,1.8-.7,2.55,2.55,0,0,0,.67-1.85Z" transform="translate(-2.25 -5.04)"/><path class="cls-4" d="M148,32.77h-3.24V25.32a3.83,3.83,0,0,0-.45-2.07,1.63,1.63,0,0,0-1.46-.69,2.12,2.12,0,0,0-2,1,6.39,6.39,0,0,0-.61,3.24v6H137V20h2.48l.43,1.64h.18a3.47,3.47,0,0,1,1.49-1.4,4.77,4.77,0,0,1,2.17-.47,4,4,0,0,1,3.14,1.2A5.07,5.07,0,0,1,148,24.45Z" transform="translate(-2.25 -5.04)"/></svg>